<svg width="192" height="192" viewBox="0 0 192 192" fill="none" xmlns="http://www.w3.org/2000/svg">
<path d="M26.803 5.24433C27.2014 2.8013 29.4014 1 31.9868 1C35.0942 1 37.5206 3.56852 37.2062 6.52504L36.6054 12.175C35.9696 18.1549 40.8774 23.35 47.1624 23.35H171.423C182.1 23.35 189.194 33.9185 184.748 43.2022L135.587 145.861C133.201 150.845 127.995 154.041 122.263 154.041H19.659C10.6645 154.041 3.79239 146.364 5.17823 137.865L26.803 5.24433Z" fill="#2B2B2B"/>
<path d="M43.9087 182.063C39.7919 189.566 31.1939 193.008 24.7046 189.752C18.2153 186.495 16.292 177.773 20.4088 170.27C24.5256 162.767 33.1236 159.325 39.6129 162.581C46.1022 165.838 48.0255 174.56 43.9087 182.063Z" fill="#2B2B2B"/>
<path d="M104.008 182.098C99.8912 189.601 91.2932 193.043 84.8038 189.787C78.3145 186.53 76.3912 177.808 80.5081 170.305C84.6249 162.802 93.2229 159.36 99.7122 162.616C106.202 165.873 108.125 174.595 104.008 182.098Z" fill="#2B2B2B"/>
<path d="M72.5974 40.0417C73.0343 39.0667 74.0368 38.4346 75.146 38.4346H125.027C127 38.4346 128.342 40.3512 127.59 42.0966C127.162 43.0898 126.15 43.738 125.027 43.738H75.1459C73.1554 43.738 71.8133 41.7915 72.5974 40.0417Z" fill="#D9D9D9"/>
<path d="M61.7003 77.4764C62.1372 76.5014 63.1397 75.8693 64.2489 75.8693H114.129C116.103 75.8693 117.445 77.7859 116.693 79.5313C116.265 80.5245 115.253 81.1727 114.129 81.1727H64.2488C62.2583 81.1727 60.9162 79.2262 61.7003 77.4764Z" fill="#D9D9D9"/>
<path d="M66.9114 58.5225C67.3483 57.5476 68.3508 56.9154 69.4599 56.9154H119.341C121.314 56.9154 122.656 58.8321 121.904 60.5774C121.476 61.5706 120.464 62.2188 119.341 62.2188H69.4599C67.4693 62.2188 66.1273 60.2723 66.9114 58.5225Z" fill="#D9D9D9"/>
<path d="M55.4025 95.3901C55.8394 94.4151 56.8418 93.783 57.951 93.783H107.832C109.805 93.783 111.147 95.6996 110.395 97.445C109.967 98.4382 108.955 99.0864 107.832 99.0864H57.951C55.9604 99.0864 54.6183 97.1399 55.4025 95.3901Z" fill="#D9D9D9"/>
<path d="M42.7916 133.253C43.2286 132.278 44.231 131.646 45.3402 131.646H95.2207C97.1947 131.646 98.5364 133.562 97.7843 135.308C97.3563 136.301 96.344 136.949 95.2207 136.949H45.3402C43.3496 136.949 42.0075 135.002 42.7916 133.253Z" fill="#D9D9D9"/>
<path d="M49.2883 114.299C49.7253 113.324 50.7277 112.692 51.8369 112.692H101.717C103.691 112.692 105.033 114.608 104.281 116.354C103.853 117.347 102.841 117.995 101.717 117.995H51.8369C49.8463 117.995 48.5042 116.049 49.2883 114.299Z" fill="#D9D9D9"/>
</svg>
