<svg width="979" height="801" viewBox="0 0 979 801" fill="none" xmlns="http://www.w3.org/2000/svg">
<g id="shopping-list">
<g id="Vector">
<path d="M336.424 17.8918C338.03 7.5933 346.899 0 357.322 0C369.85 0 379.632 10.8275 378.364 23.2906L375.942 47.1078C373.379 72.3158 393.164 94.2156 418.502 94.2156H919.454C962.498 94.2156 991.095 138.767 973.173 177.902L774.984 610.655C765.362 631.665 744.374 645.137 721.266 645.137H307.623C271.363 645.137 243.658 612.777 249.245 576.949L336.424 17.8918Z" fill="#2B2B2B"/>
<path d="M405.385 763.264C388.788 794.892 354.126 809.403 327.965 795.675C301.803 781.947 294.049 745.178 310.646 713.55C327.243 681.922 361.905 667.411 388.067 681.14C414.228 694.868 421.982 731.636 405.385 763.264Z" fill="#2B2B2B"/>
<path d="M647.673 763.412C631.076 795.04 596.414 809.55 570.252 795.822C544.091 782.094 536.337 745.325 552.934 713.697C569.531 682.069 604.193 667.559 630.355 681.287C656.516 695.015 664.27 731.784 647.673 763.412Z" fill="#2B2B2B"/>
<path d="M71.1327 162.32C72.8941 158.21 76.9354 155.545 81.407 155.545H282.499C290.456 155.545 295.866 163.625 292.834 170.982C291.108 175.169 287.027 177.902 282.499 177.902H81.407C73.382 177.902 67.9715 169.696 71.1327 162.32Z" fill="#2B2B2B"/>
<path d="M49.7979 239.838C51.5593 235.728 55.6006 233.063 60.0722 233.063H261.164C269.122 233.063 274.531 241.142 271.499 248.5C269.774 252.687 265.692 255.419 261.164 255.419H60.0722C52.0472 255.419 46.6367 247.214 49.7979 239.838Z" fill="#2B2B2B"/>
<path d="M32.5436 317.694C34.305 313.584 38.3463 310.919 42.8179 310.919H243.91C251.867 310.919 257.277 318.999 254.245 326.356C252.519 330.543 248.438 333.275 243.91 333.275H42.8178C34.7929 333.275 29.3824 325.07 32.5436 317.694Z" fill="#2B2B2B"/>
<path d="M17.8347 395.937C19.5961 391.827 23.6374 389.162 28.109 389.162H229.201C237.159 389.162 242.568 397.242 239.536 404.599C237.81 408.786 233.729 411.518 229.201 411.518H28.109C20.084 411.518 14.6735 403.313 17.8347 395.937Z" fill="#2B2B2B"/>
<path d="M1.43929 480.919C3.20072 476.809 7.24203 474.144 11.7136 474.144H212.805C220.763 474.144 226.172 482.224 223.14 489.581C221.415 493.768 217.334 496.501 212.805 496.501H11.7136C3.68863 496.501 -1.72189 488.295 1.43929 480.919Z" fill="#2B2B2B"/>
</g>
</g>
</svg>
